<mxfile host="app.diagrams.net" agent="Mozilla/5.0 (Macintosh; Intel Mac OS X 10_15_7) AppleWebKit/537.36 (KHTML, like Gecko) Chrome/137.0.0.0 Safari/537.36" version="26.1.0">
  <diagram name="Page-1" id="lmkAGvGzuEOsjPoshDEV">
    <mxGraphModel dx="954" dy="605" grid="0" gridSize="10" guides="1" tooltips="1" connect="1" arrows="1" fold="1" page="0" pageScale="1" pageWidth="850" pageHeight="1100" math="0" shadow="0">
      <root>
        <mxCell id="0" />
        <mxCell id="1" parent="0" />
        <mxCell id="oypCVnhSTLfay1yyYYoY-1" value="Bucket" style="sketch=0;outlineConnect=0;fontColor=#232F3E;gradientColor=none;strokeColor=#232F3E;fillColor=#ffffff;dashed=0;verticalLabelPosition=bottom;verticalAlign=top;align=center;html=1;fontSize=12;fontStyle=0;aspect=fixed;shape=mxgraph.aws4.resourceIcon;resIcon=mxgraph.aws4.bucket;" vertex="1" parent="1">
          <mxGeometry x="257" y="270" width="60" height="60" as="geometry" />
        </mxCell>
        <mxCell id="oypCVnhSTLfay1yyYYoY-2" value="" style="endArrow=classic;html=1;rounded=0;" edge="1" parent="1">
          <mxGeometry width="50" height="50" relative="1" as="geometry">
            <mxPoint x="192" y="305" as="sourcePoint" />
            <mxPoint x="257" y="305" as="targetPoint" />
          </mxGeometry>
        </mxCell>
        <mxCell id="oypCVnhSTLfay1yyYYoY-3" value="events" style="text;html=1;align=center;verticalAlign=middle;whiteSpace=wrap;rounded=0;" vertex="1" parent="1">
          <mxGeometry x="183" y="273" width="60" height="30" as="geometry" />
        </mxCell>
        <mxCell id="oypCVnhSTLfay1yyYYoY-4" value="" style="endArrow=classic;html=1;rounded=0;exitX=1;exitY=0.6;exitDx=0;exitDy=0;exitPerimeter=0;" edge="1" parent="1" source="oypCVnhSTLfay1yyYYoY-1">
          <mxGeometry width="50" height="50" relative="1" as="geometry">
            <mxPoint x="399" y="339" as="sourcePoint" />
            <mxPoint x="432" y="233" as="targetPoint" />
          </mxGeometry>
        </mxCell>
        <mxCell id="oypCVnhSTLfay1yyYYoY-6" value="" style="endArrow=classic;html=1;rounded=0;exitX=0.933;exitY=0.667;exitDx=0;exitDy=0;exitPerimeter=0;" edge="1" parent="1">
          <mxGeometry width="50" height="50" relative="1" as="geometry">
            <mxPoint x="314.98" y="307.02" as="sourcePoint" />
            <mxPoint x="434" y="307" as="targetPoint" />
          </mxGeometry>
        </mxCell>
        <mxCell id="oypCVnhSTLfay1yyYYoY-7" value="" style="endArrow=classic;html=1;rounded=0;exitX=0.983;exitY=0.633;exitDx=0;exitDy=0;exitPerimeter=0;" edge="1" parent="1" source="oypCVnhSTLfay1yyYYoY-1">
          <mxGeometry width="50" height="50" relative="1" as="geometry">
            <mxPoint x="337" y="326" as="sourcePoint" />
            <mxPoint x="426" y="388" as="targetPoint" />
          </mxGeometry>
        </mxCell>
        <mxCell id="oypCVnhSTLfay1yyYYoY-8" value="" style="sketch=0;points=[[0,0,0],[0.25,0,0],[0.5,0,0],[0.75,0,0],[1,0,0],[0,1,0],[0.25,1,0],[0.5,1,0],[0.75,1,0],[1,1,0],[0,0.25,0],[0,0.5,0],[0,0.75,0],[1,0.25,0],[1,0.5,0],[1,0.75,0]];outlineConnect=0;fontColor=#232F3E;fillColor=#E7157B;strokeColor=#ffffff;dashed=0;verticalLabelPosition=bottom;verticalAlign=top;align=center;html=1;fontSize=12;fontStyle=0;aspect=fixed;shape=mxgraph.aws4.resourceIcon;resIcon=mxgraph.aws4.sns;" vertex="1" parent="1">
          <mxGeometry x="449" y="208" width="46" height="46" as="geometry" />
        </mxCell>
        <mxCell id="oypCVnhSTLfay1yyYYoY-9" value="" style="sketch=0;points=[[0,0,0],[0.25,0,0],[0.5,0,0],[0.75,0,0],[1,0,0],[0,1,0],[0.25,1,0],[0.5,1,0],[0.75,1,0],[1,1,0],[0,0.25,0],[0,0.5,0],[0,0.75,0],[1,0.25,0],[1,0.5,0],[1,0.75,0]];outlineConnect=0;fontColor=#232F3E;fillColor=#E7157B;strokeColor=#ffffff;dashed=0;verticalLabelPosition=bottom;verticalAlign=top;align=center;html=1;fontSize=12;fontStyle=0;aspect=fixed;shape=mxgraph.aws4.resourceIcon;resIcon=mxgraph.aws4.sqs;" vertex="1" parent="1">
          <mxGeometry x="449" y="281" width="46" height="46" as="geometry" />
        </mxCell>
        <mxCell id="oypCVnhSTLfay1yyYYoY-10" value="" style="outlineConnect=0;dashed=0;verticalLabelPosition=bottom;verticalAlign=top;align=center;html=1;shape=mxgraph.aws3.lambda_function;fillColor=#F58534;gradientColor=none;" vertex="1" parent="1">
          <mxGeometry x="449" y="368" width="45" height="45" as="geometry" />
        </mxCell>
        <mxCell id="oypCVnhSTLfay1yyYYoY-11" value="SNS" style="text;html=1;align=center;verticalAlign=middle;whiteSpace=wrap;rounded=0;" vertex="1" parent="1">
          <mxGeometry x="511" y="219" width="60" height="30" as="geometry" />
        </mxCell>
        <mxCell id="oypCVnhSTLfay1yyYYoY-12" value="SQS" style="text;html=1;align=center;verticalAlign=middle;whiteSpace=wrap;rounded=0;" vertex="1" parent="1">
          <mxGeometry x="511" y="289" width="60" height="30" as="geometry" />
        </mxCell>
        <mxCell id="oypCVnhSTLfay1yyYYoY-13" value="Lambda" style="text;html=1;align=center;verticalAlign=middle;whiteSpace=wrap;rounded=0;" vertex="1" parent="1">
          <mxGeometry x="511" y="375.5" width="60" height="30" as="geometry" />
        </mxCell>
        <mxCell id="oypCVnhSTLfay1yyYYoY-15" value="Bucket" style="sketch=0;outlineConnect=0;fontColor=#232F3E;gradientColor=none;strokeColor=#232F3E;fillColor=#ffffff;dashed=0;verticalLabelPosition=bottom;verticalAlign=top;align=center;html=1;fontSize=12;fontStyle=0;aspect=fixed;shape=mxgraph.aws4.resourceIcon;resIcon=mxgraph.aws4.bucket;" vertex="1" parent="1">
          <mxGeometry x="253" y="505" width="60" height="60" as="geometry" />
        </mxCell>
        <mxCell id="oypCVnhSTLfay1yyYYoY-16" value="" style="endArrow=classic;html=1;rounded=0;" edge="1" parent="1">
          <mxGeometry width="50" height="50" relative="1" as="geometry">
            <mxPoint x="188" y="540" as="sourcePoint" />
            <mxPoint x="253" y="540" as="targetPoint" />
          </mxGeometry>
        </mxCell>
        <mxCell id="oypCVnhSTLfay1yyYYoY-17" value="events" style="text;html=1;align=center;verticalAlign=middle;whiteSpace=wrap;rounded=0;" vertex="1" parent="1">
          <mxGeometry x="179" y="508" width="60" height="30" as="geometry" />
        </mxCell>
        <mxCell id="oypCVnhSTLfay1yyYYoY-18" value="" style="endArrow=classic;html=1;rounded=0;exitX=0.933;exitY=0.667;exitDx=0;exitDy=0;exitPerimeter=0;" edge="1" parent="1" target="oypCVnhSTLfay1yyYYoY-19">
          <mxGeometry width="50" height="50" relative="1" as="geometry">
            <mxPoint x="317" y="538.02" as="sourcePoint" />
            <mxPoint x="436.02" y="538" as="targetPoint" />
          </mxGeometry>
        </mxCell>
        <mxCell id="oypCVnhSTLfay1yyYYoY-19" value="" style="sketch=0;points=[[0,0,0],[0.25,0,0],[0.5,0,0],[0.75,0,0],[1,0,0],[0,1,0],[0.25,1,0],[0.5,1,0],[0.75,1,0],[1,1,0],[0,0.25,0],[0,0.5,0],[0,0.75,0],[1,0.25,0],[1,0.5,0],[1,0.75,0]];outlineConnect=0;fontColor=#232F3E;fillColor=#E7157B;strokeColor=#ffffff;dashed=0;verticalLabelPosition=bottom;verticalAlign=top;align=center;html=1;fontSize=12;fontStyle=0;aspect=fixed;shape=mxgraph.aws4.resourceIcon;resIcon=mxgraph.aws4.eventbridge;" vertex="1" parent="1">
          <mxGeometry x="397.02" y="503" width="69" height="69" as="geometry" />
        </mxCell>
        <mxCell id="oypCVnhSTLfay1yyYYoY-20" value="" style="endArrow=classic;html=1;rounded=0;exitX=0.933;exitY=0.667;exitDx=0;exitDy=0;exitPerimeter=0;" edge="1" parent="1">
          <mxGeometry width="50" height="50" relative="1" as="geometry">
            <mxPoint x="476" y="538.02" as="sourcePoint" />
            <mxPoint x="556" y="538" as="targetPoint" />
          </mxGeometry>
        </mxCell>
        <mxCell id="oypCVnhSTLfay1yyYYoY-21" value="AWS EventBridge" style="text;html=1;align=center;verticalAlign=middle;whiteSpace=wrap;rounded=0;" vertex="1" parent="1">
          <mxGeometry x="401.52" y="580" width="60" height="30" as="geometry" />
        </mxCell>
        <mxCell id="oypCVnhSTLfay1yyYYoY-22" value="Rules" style="text;html=1;align=center;verticalAlign=middle;whiteSpace=wrap;rounded=0;" vertex="1" parent="1">
          <mxGeometry x="487" y="508" width="60" height="30" as="geometry" />
        </mxCell>
        <mxCell id="oypCVnhSTLfay1yyYYoY-23" value="18 different AWS services" style="text;html=1;align=center;verticalAlign=middle;whiteSpace=wrap;rounded=0;" vertex="1" parent="1">
          <mxGeometry x="578" y="520" width="90" height="30" as="geometry" />
        </mxCell>
      </root>
    </mxGraphModel>
  </diagram>
</mxfile>
